{
  "title": "The Shawshank Redemption (1994) 1080p",
  "uid": 11217878,
  "size": 4178312550,
  "categoryP": "video",
  "categoryS": "hd___movies",
  "magnet": "?xt=urn:btih:c0dcdbf9c7eda92e783de835600f7ad6a2328daa&amp;dn=The+Shawshank+Redemption+%281994%29+1080p&amp;tr=udp%3A%2F%2Ftracker.openbittorrent.com%3A80&amp;tr=udp%3A%2F%2Fopen.demonii.com%3A1337&amp;tr=udp%3A%2F%2Ftracker.coppersurfer.tk%3A6969&amp;tr=udp%3A%2F%2Fexodus.desync.com%3A6969",
  "seeders": 236,
  "leechers": 36,
  "uploader": "AlienMethod",
  "files": -1,
  "time": 1413342134,
  "description": "Stax Double-Encode/MP4x264\n2-Channel AAC@192kbps (audio 1)\n6-Channel AC3@448kbps (audio 2)\n\n&quot;Two imprisoned men bond over a number of years, finding solace and eventual redemption through acts of common decency.&quot;\n\nVideo\nID : 1\nFormat : AVC\nFormat/Info : Advanced Video Codec\nFormat profile : &lt;a class=&quot;__cf_email__&quot; href=&quot;/cdn-cgi/l/email-protection&quot; data-cfemail=&quot;9ad2f3fdf2dad6aeb4aa&quot;&gt;[email&amp;#160;protected]&lt;/a&gt;&lt;script cf-hash='f9e31' type=&quot;text/javascript&quot;&gt;\n/* &lt;![CDATA[ */!function(){try{var t=&quot;currentScript&quot;in document?document.currentScript:function(){for(var t=document.getElementsByTagName(&quot;script&quot;),e=t.length;e--;)if(t[e].getAttribute(&quot;cf-hash&quot;))return t[e]}();if(t&amp;&amp;t.previousSibling){var e,r,n,i,c=t.previousSibling,a=c.getAttribute(&quot;data-cfemail&quot;);if(a){for(e=&quot;&quot;,r=parseInt(a.substr(0,2),16),n=2;a.length-n;n+=2)i=parseInt(a.substr(n,2),16)^r,e+=String.fromCharCode(i);e=document.createTextNode(e),c.parentNode.replaceChild(e,c)}}}catch(u){}}();/* ]]&gt; */&lt;/script&gt;\nFormat settings, CABAC : Yes\nFormat settings, ReFrames : 4 frames\nCodec ID : avc1\nCodec ID/Info : Advanced Video Coding\nDuration : 2h 22mn\nBit rate : 3 234 Kbps\nMaximum bit rate : 20.2 Mbps\nWidth : 1 920 pixels\nHeight : 1 080 pixels\nDisplay aspect ratio : 16:9\nFrame rate mode : Constant\nFrame rate : 23.976 fps\nColor space : YUV\nChroma subsampling : 4:2:0\nBit depth : 8 bits\nScan type : Progressive\nBits/(Pixel*Frame) : 0.065\nStream size : 3.22 GiB (83%)\nTitle : The.Shawshank.Redemption.VideoEncode.h264\nWriting library : x264 core 142 r2479 dd79a61\nEncoded date : UTC 2014-10-14 21:32:12\nTagged date : UTC 2014-10-14 21:32:59\n\nAudio #1\nID : 2\nFormat : AAC\nFormat/Info : Advanced Audio Codec\nFormat profile : LC\nCodec ID : 40\nDuration : 2h 22mn\nBit rate mode : Variable\nBit rate : 222 Kbps\nMaximum bit rate : 262 Kbps\nChannel(s) : 2 channels\nChannel positions : Front: L R\nSampling rate : 48.0 KHz\nCompression mode : Lossy\nStream size : 226 MiB (6%)\nTitle : The.Shawshank.Redemption.AAC.m4a\nEncoded date : UTC 2014-10-14 21:32:27\nTagged date : UTC 2014-10-14 21:32:59\n\nAudio #2\nID : 3\nFormat : AC-3\nFormat/Info : Audio Coding 3\nMode extension : CM (complete main)\nFormat settings, Endianness : Big\nCodec ID : ac-3\nDuration : 2h 22mn\nBit rate mode : Constant\nBit rate : 448 Kbps\nChannel(s) : 6 channels\nChannel positions : Front: L C R, Side: L R, LFE\nSampling rate : 48.0 KHz\nBit depth : 16 bits\nCompression mode : Lossy\nStream size : 457 MiB (11%)\nTitle : The.Shawshank.Redemption.AC3.ac3\nEncoded date : UTC 2014-10-14 21:32:51\nTagged date : UTC 2014-10-14 21:32:59",
  "parsed": {
    "xt": "urn:btih:c0dcdbf9c7eda92e783de835600f7ad6a2328daa",
    "dn": "The Shawshank Redemption (1994) 1080p",
    "tr": [
      "udp://exodus.desync.com:6969",
      "udp://open.demonii.com:1337",
      "udp://tracker.coppersurfer.tk:6969",
      "udp://tracker.openbittorrent.com:80"
    ],
    "infoHash": "c0dcdbf9c7eda92e783de835600f7ad6a2328daa",
    "infoHashBuffer": {
      "type": "Buffer",
      "data": [
        192,
        220,
        219,
        249,
        199,
        237,
        169,
        46,
        120,
        61,
        232,
        53,
        96,
        15,
        122,
        214,
        162,
        50,
        141,
        170
      ]
    },
    "name": "The Shawshank Redemption (1994) 1080p",
    "announce": [
      "udp://exodus.desync.com:6969",
      "udp://open.demonii.com:1337",
      "udp://tracker.coppersurfer.tk:6969",
      "udp://tracker.openbittorrent.com:80"
    ],
    "urlList": []
  },
  "previous": 272,
  "peers": 93,
  "last_updated": "2016-12-25T12:54:29.284Z"
}